<svg xmlns="http://www.w3.org/2000/svg" viewBox="0 0 800 560" width="800" height="560">
  <defs>
    <linearGradient id="bgGrad" x1="0%" y1="0%" x2="100%" y2="100%">
      <stop offset="0%" style="stop-color:#fff5f8"/>
      <stop offset="100%" style="stop-color:#ffe4ee"/>
    </linearGradient>
    <linearGradient id="circleGrad" x1="0%" y1="0%" x2="100%" y2="100%">
      <stop offset="0%" style="stop-color:#ffe4ee"/>
      <stop offset="50%" style="stop-color:#ffbfd8"/>
      <stop offset="100%" style="stop-color:#ffd6e8"/>
    </linearGradient>
    <linearGradient id="btnGrad" x1="0%" y1="0%" x2="100%" y2="0%">
      <stop offset="0%" style="stop-color:#e8608c"/>
      <stop offset="100%" style="stop-color:#c94d79"/>
    </linearGradient>
    <linearGradient id="avatarGrad" x1="0%" y1="0%" x2="100%" y2="100%">
      <stop offset="0%" style="stop-color:#ffb3d0"/>
      <stop offset="100%" style="stop-color:#e8608c"/>
    </linearGradient>
    <filter id="softShadow" x="-20%" y="-20%" width="140%" height="140%">
      <feDropShadow dx="0" dy="6" stdDeviation="12" flood-color="#e8608c" flood-opacity="0.15"/>
    </filter>
    <filter id="cardShadow" x="-10%" y="-10%" width="120%" height="120%">
      <feDropShadow dx="0" dy="4" stdDeviation="8" flood-color="#2a1220" flood-opacity="0.07"/>
    </filter>
  </defs>

  <!-- Background -->
  <rect width="800" height="560" fill="url(#bgGrad)"/>

  <!-- Decorative blobs -->
  <ellipse cx="680" cy="80" rx="180" ry="160" fill="#ffb3d0" opacity="0.3" transform="rotate(-20 680 80)"/>
  <ellipse cx="100" cy="450" rx="150" ry="130" fill="#ffd6e8" opacity="0.35" transform="rotate(15 100 450)"/>
  <ellipse cx="750" cy="420" rx="100" ry="90" fill="#ffbfd8" opacity="0.25"/>

  <!-- Floating decorative dots -->
  <circle cx="60" cy="100" r="6" fill="#e8608c" opacity="0.3"/>
  <circle cx="90" cy="130" r="3" fill="#f5afc8" opacity="0.5"/>
  <circle cx="730" cy="300" r="5" fill="#e8608c" opacity="0.2"/>
  <circle cx="755" cy="260" r="3" fill="#f5afc8" opacity="0.4"/>
  <circle cx="140" cy="200" r="4" fill="#e8608c" opacity="0.2"/>

  <!-- Nav bar -->
  <rect x="40" y="28" width="720" height="44" rx="12" fill="white" opacity="0.85" filter="url(#cardShadow)"/>
  <!-- Logo text simulation -->
  <rect x="64" y="43" width="110" height="14" rx="7" fill="#e8608c" opacity="0.9"/>
  <!-- Nav links -->
  <rect x="290" y="47" width="52" height="8" rx="4" fill="#7d4560" opacity="0.4"/>
  <rect x="358" y="47" width="52" height="8" rx="4" fill="#7d4560" opacity="0.4"/>
  <rect x="426" y="47" width="52" height="8" rx="4" fill="#7d4560" opacity="0.4"/>
  <!-- CTA button -->
  <rect x="622" y="38" width="114" height="30" rx="15" fill="url(#btnGrad)"/>
  <rect x="640" y="48" width="78" height="8" rx="4" fill="white" opacity="0.9"/>

  <!-- Hero section -->
  <!-- Left text block -->
  <!-- Tag pill -->
  <rect x="60" y="98" width="168" height="22" rx="11" fill="#e8608c" opacity="0.1"/>
  <rect x="60" y="98" width="168" height="22" rx="11" fill="none" stroke="#e8608c" stroke-width="1" opacity="0.3"/>
  <rect x="78" y="105" width="110" height="8" rx="4" fill="#e8608c" opacity="0.7"/>

  <!-- Headline lines (Pacifico-style thick) -->
  <rect x="60" y="132" width="300" height="22" rx="6" fill="#2a1220" opacity="0.85"/>
  <rect x="60" y="162" width="260" height="22" rx="6" fill="#e8608c" opacity="0.85"/>
  <rect x="60" y="192" width="180" height="18" rx="6" fill="#c94d79" opacity="0.7"/>

  <!-- Description lines -->
  <rect x="60" y="226" width="290" height="8" rx="4" fill="#7d4560" opacity="0.4"/>
  <rect x="60" y="241" width="270" height="8" rx="4" fill="#7d4560" opacity="0.35"/>
  <rect x="60" y="256" width="210" height="8" rx="4" fill="#7d4560" opacity="0.3"/>

  <!-- CTA buttons -->
  <rect x="60" y="278" width="152" height="38" rx="19" fill="url(#btnGrad)" filter="url(#softShadow)"/>
  <rect x="76" y="293" width="118" height="8" rx="4" fill="white" opacity="0.9"/>
  <rect x="224" y="278" width="120" height="38" rx="19" fill="none" stroke="#e8608c" stroke-width="2" opacity="0.5"/>
  <rect x="240" y="293" width="88" height="8" rx="4" fill="#e8608c" opacity="0.6"/>

  <!-- Stats card -->
  <rect x="60" y="330" width="290" height="64" rx="16" fill="white" filter="url(#cardShadow)"/>
  <rect x="60" y="330" width="290" height="64" rx="16" fill="none" stroke="#e8608c" stroke-width="1" opacity="0.12"/>
  <!-- Stat 1 -->
  <rect x="86" y="344" width="40" height="14" rx="5" fill="#e8608c" opacity="0.8"/>
  <rect x="80" y="364" width="52" height="8" rx="4" fill="#b08090" opacity="0.5"/>
  <!-- Divider -->
  <rect x="196" y="346" width="1" height="28" fill="#e8608c" opacity="0.15"/>
  <!-- Stat 2 -->
  <rect x="210" y="344" width="48" height="14" rx="5" fill="#e8608c" opacity="0.8"/>
  <rect x="207" y="364" width="54" height="8" rx="4" fill="#b08090" opacity="0.5"/>
  <!-- Divider -->
  <rect x="288" y="346" width="1" height="28" fill="#e8608c" opacity="0.15"/>
  <!-- Stat 3 -->
  <rect x="300" y="344" width="36" height="14" rx="5" fill="#e8608c" opacity="0.8"/>
  <rect x="295" y="364" width="46" height="8" rx="4" fill="#b08090" opacity="0.5"/>

  <!-- Hero right — cake circle -->
  <circle cx="580" cy="250" r="155" fill="url(#circleGrad)" filter="url(#softShadow)"/>
  <!-- Outer ring 1 -->
  <circle cx="580" cy="250" r="170" fill="none" stroke="#ffd6e8" stroke-width="14" opacity="0.5"/>
  <!-- Outer ring 2 -->
  <circle cx="580" cy="250" r="188" fill="none" stroke="#ffd6e8" stroke-width="8" opacity="0.2"/>

  <!-- Cake illustration (simple geometric) -->
  <!-- Cake body -->
  <rect x="530" y="240" width="100" height="60" rx="6" fill="white" opacity="0.9"/>
  <!-- Cake top layer -->
  <rect x="542" y="215" width="76" height="32" rx="6" fill="white" opacity="0.85"/>
  <!-- Icing drip on top -->
  <path d="M542 232 Q556 244 568 232 Q580 244 592 232 Q604 244 618 232" fill="none" stroke="#f5afc8" stroke-width="4" stroke-linecap="round"/>
  <!-- Candles -->
  <rect x="558" y="198" width="6" height="18" rx="3" fill="#e8608c" opacity="0.7"/>
  <rect x="572" y="194" width="6" height="22" rx="3" fill="#c94d79" opacity="0.7"/>
  <rect x="586" y="200" width="6" height="16" rx="3" fill="#f5afc8" opacity="0.8"/>
  <!-- Candle flames -->
  <ellipse cx="561" cy="196" rx="4" ry="5" fill="#ffb3d0" opacity="0.9"/>
  <ellipse cx="575" cy="192" rx="4" ry="5" fill="#e8608c" opacity="0.8"/>
  <ellipse cx="589" cy="198" rx="4" ry="5" fill="#f5afc8" opacity="0.9"/>
  <!-- Cake decoration dots -->
  <circle cx="548" cy="258" r="4" fill="#e8608c" opacity="0.5"/>
  <circle cx="563" cy="258" r="4" fill="#f5afc8" opacity="0.6"/>
  <circle cx="578" cy="258" r="4" fill="#c94d79" opacity="0.5"/>
  <circle cx="593" cy="258" r="4" fill="#e8608c" opacity="0.4"/>
  <circle cx="608" cy="258" r="4" fill="#f5afc8" opacity="0.5"/>
  <!-- Plate / base -->
  <ellipse cx="580" cy="300" rx="64" ry="8" fill="#ffd6e8" opacity="0.6"/>

  <!-- Floating emoji-like elements around cake -->
  <!-- Heart 1 -->
  <text x="430" y="135" font-size="22" opacity="0.7">💗</text>
  <!-- Heart 2 -->
  <text x="710" y="340" font-size="18" opacity="0.6">💕</text>
  <!-- Star -->
  <text x="712" y="160" font-size="20" opacity="0.65">✨</text>
  <!-- Flower -->
  <text x="435" y="370" font-size="18" opacity="0.6">🌸</text>
  <!-- Cupcake -->
  <text x="690" y="110" font-size="24" opacity="0.65">🧁</text>

  <!-- Menu section preview (bottom strip) -->
  <rect x="40" y="420" width="720" height="110" rx="16" fill="white" opacity="0.7" filter="url(#cardShadow)"/>

  <!-- Section eyebrow -->
  <rect x="340" y="432" width="120" height="8" rx="4" fill="#e8608c" opacity="0.5"/>

  <!-- 4 mini cake cards -->
  <!-- Card 1 -->
  <rect x="60" y="450" width="156" height="66" rx="12" fill="white" filter="url(#cardShadow)"/>
  <rect x="60" y="450" width="156" height="66" rx="12" fill="none" stroke="#e8608c" stroke-width="1" opacity="0.15"/>
  <rect x="74" y="462" width="28" height="28" rx="8" fill="#fff0f5"/>
  <text x="76" y="483" font-size="20">🎂</text>
  <rect x="110" y="463" width="80" height="8" rx="4" fill="#2a1220" opacity="0.7"/>
  <rect x="110" y="477" width="65" height="6" rx="3" fill="#7d4560" opacity="0.35"/>
  <rect x="110" y="489" width="48" height="6" rx="3" fill="#7d4560" opacity="0.3"/>
  <rect x="74" y="500" width="50" height="7" rx="4" fill="#e8608c" opacity="0.7"/>

  <!-- Card 2 -->
  <rect x="228" y="450" width="156" height="66" rx="12" fill="white" filter="url(#cardShadow)"/>
  <rect x="228" y="450" width="156" height="66" rx="12" fill="none" stroke="#e8608c" stroke-width="1" opacity="0.15"/>
  <rect x="242" y="462" width="28" height="28" rx="8" fill="#fff0f5"/>
  <text x="244" y="483" font-size="20">🍮</text>
  <rect x="278" y="463" width="80" height="8" rx="4" fill="#2a1220" opacity="0.7"/>
  <rect x="278" y="477" width="65" height="6" rx="3" fill="#7d4560" opacity="0.35"/>
  <rect x="278" y="489" width="48" height="6" rx="3" fill="#7d4560" opacity="0.3"/>
  <rect x="242" y="500" width="50" height="7" rx="4" fill="#e8608c" opacity="0.7"/>

  <!-- Card 3 -->
  <rect x="396" y="450" width="156" height="66" rx="12" fill="white" filter="url(#cardShadow)"/>
  <rect x="396" y="450" width="156" height="66" rx="12" fill="none" stroke="#e8608c" stroke-width="1" opacity="0.15"/>
  <rect x="410" y="462" width="28" height="28" rx="8" fill="#fff0f5"/>
  <text x="412" y="483" font-size="20">🌸</text>
  <rect x="446" y="463" width="80" height="8" rx="4" fill="#2a1220" opacity="0.7"/>
  <rect x="446" y="477" width="65" height="6" rx="3" fill="#7d4560" opacity="0.35"/>
  <rect x="446" y="489" width="48" height="6" rx="3" fill="#7d4560" opacity="0.3"/>
  <rect x="410" y="500" width="50" height="7" rx="4" fill="#e8608c" opacity="0.7"/>

  <!-- Card 4 -->
  <rect x="564" y="450" width="156" height="66" rx="12" fill="white" filter="url(#cardShadow)"/>
  <rect x="564" y="450" width="156" height="66" rx="12" fill="none" stroke="#e8608c" stroke-width="1" opacity="0.15"/>
  <rect x="578" y="462" width="28" height="28" rx="8" fill="#fff0f5"/>
  <text x="580" y="483" font-size="20">🧁</text>
  <rect x="614" y="463" width="80" height="8" rx="4" fill="#2a1220" opacity="0.7"/>
  <rect x="614" y="477" width="65" height="6" rx="3" fill="#7d4560" opacity="0.35"/>
  <rect x="614" y="489" width="48" height="6" rx="3" fill="#7d4560" opacity="0.3"/>
  <rect x="578" y="500" width="50" height="7" rx="4" fill="#e8608c" opacity="0.7"/>
</svg>
