<svg xmlns="http://www.w3.org/2000/svg" viewBox="0 0 800 560" width="800" height="560">
  <defs>
    <linearGradient id="szBg" x1="0%" y1="0%" x2="100%" y2="100%">
      <stop offset="0%" style="stop-color:#f8f7f5"/>
      <stop offset="100%" style="stop-color:#f0ebe3"/>
    </linearGradient>
    <linearGradient id="szPanel" x1="0%" y1="0%" x2="0%" y2="100%">
      <stop offset="0%" style="stop-color:#9c7b60"/>
      <stop offset="100%" style="stop-color:#7a5c42"/>
    </linearGradient>
  </defs>

  <!-- Background -->
  <rect width="800" height="560" fill="url(#szBg)"/>

  <!-- Right earth panel -->
  <rect x="480" y="0" width="320" height="560" fill="url(#szPanel)" opacity="0.92"/>

  <!-- Panel inner border -->
  <rect x="504" y="24" width="272" height="512" fill="none" stroke="rgba(255,255,255,0.15)" stroke-width="1"/>

  <!-- Circle in panel -->
  <circle cx="640" cy="280" r="110" fill="none" stroke="rgba(255,255,255,0.2)" stroke-width="1"/>
  <circle cx="640" cy="280" r="80" fill="none" stroke="rgba(255,255,255,0.12)" stroke-width="1"/>
  <circle cx="640" cy="280" r="48" fill="rgba(255,255,255,0.08)" stroke="rgba(255,255,255,0.18)" stroke-width="1"/>
  <!-- Leaf emoji hint -->
  <text x="616" y="292" font-size="28" opacity="0.55">🌿</text>

  <!-- Panel "est. 2016" label -->
  <rect x="604" y="388" width="72" height="7" rx="3.5" fill="rgba(255,255,255,0.25)"/>

  <!-- Navbar -->
  <rect x="0" y="0" width="480" height="60" fill="rgba(248,247,245,0.95)"/>
  <rect x="0" y="59" width="480" height="1" fill="#e0dad3"/>
  <!-- Logo text blocks -->
  <rect x="32" y="22" width="54" height="8" rx="3" fill="#1a1816" opacity="0.8"/>
  <circle cx="94" cy="26" r="2.5" fill="#8c6e54"/>
  <rect x="102" y="22" width="90" height="8" rx="3" fill="#1a1816" opacity="0.35"/>
  <!-- Nav links -->
  <rect x="200" y="26" width="36" height="6" rx="3" fill="#7a7570" opacity="0.5"/>
  <rect x="250" y="26" width="42" height="6" rx="3" fill="#7a7570" opacity="0.5"/>
  <rect x="306" y="26" width="36" height="6" rx="3" fill="#7a7570" opacity="0.5"/>
  <!-- CTA pill -->
  <rect x="388" y="18" width="72" height="26" fill="#8c6e54"/>
  <rect x="400" y="25" width="48" height="6" rx="3" fill="rgba(255,255,255,0.85)"/>

  <!-- Hero left content -->
  <!-- Eyebrow rule + text -->
  <rect x="32" y="86" width="28" height="1" fill="#8c6e54"/>
  <rect x="68" y="82" width="130" height="8" rx="3" fill="#8c6e54" opacity="0.4"/>

  <!-- Headline "trở về với" — thin Fraunces style -->
  <rect x="32" y="104" width="200" height="32" rx="3" fill="#1a1816" opacity="0.82"/>
  <!-- "khoảng lặng" -->
  <rect x="32" y="144" width="260" height="32" rx="3" fill="#1a1816" opacity="0.82"/>
  <!-- "của bạn." italic + earth -->
  <rect x="32" y="184" width="180" height="32" rx="3" fill="#8c6e54" opacity="0.75"/>

  <!-- Sub text -->
  <rect x="32" y="232" width="280" height="7" rx="3" fill="#7a7570" opacity="0.45"/>
  <rect x="32" y="245" width="250" height="7" rx="3" fill="#7a7570" opacity="0.35"/>
  <rect x="32" y="258" width="230" height="7" rx="3" fill="#7a7570" opacity="0.28"/>

  <!-- CTA buttons -->
  <rect x="32" y="284" width="130" height="40" fill="#8c6e54"/>
  <rect x="48" y="299" width="96" height="8" rx="3" fill="rgba(255,255,255,0.85)"/>
  <rect x="174" y="296" width="100" height="7" rx="3" fill="#7a7570" opacity="0.5"/>

  <!-- Stats row -->
  <rect x="32" y="344" width="30" height="20" rx="2" fill="#1a1816" opacity="0.75"/>
  <rect x="32" y="368" width="72" height="6" rx="3" fill="#7a7570" opacity="0.4"/>
  <rect x="1" y="344" width="1" height="36" fill="#e0dad3" x="115"/>
  <rect x="115" y="344" width="1" height="36" fill="#e0dad3"/>
  <rect x="128" y="344" width="38" height="20" rx="2" fill="#1a1816" opacity="0.75"/>
  <rect x="128" y="368" width="80" height="6" rx="3" fill="#7a7570" opacity="0.4"/>
  <rect x="225" y="344" width="1" height="36" fill="#e0dad3"/>
  <rect x="238" y="344" width="24" height="20" rx="2" fill="#1a1816" opacity="0.75"/>
  <rect x="238" y="368" width="60" height="6" rx="3" fill="#7a7570" opacity="0.4"/>

  <!-- Trust bar strip -->
  <rect x="0" y="420" width="480" height="44" fill="none" stroke="#e0dad3" stroke-width="1" y="419"/>
  <rect x="0" y="420" width="480" height="44" fill="rgba(224,218,211,0.18)"/>
  <rect x="32" y="434" width="90" height="6" rx="3" fill="#7a7570" opacity="0.4"/>
  <circle cx="134" cy="437" r="2" fill="#8c6e54" opacity="0.4"/>
  <rect x="144" y="434" width="80" height="6" rx="3" fill="#7a7570" opacity="0.4"/>
  <circle cx="236" cy="437" r="2" fill="#8c6e54" opacity="0.4"/>
  <rect x="246" y="434" width="96" height="6" rx="3" fill="#7a7570" opacity="0.4"/>
  <circle cx="354" cy="437" r="2" fill="#8c6e54" opacity="0.4"/>
  <rect x="364" y="434" width="80" height="6" rx="3" fill="#7a7570" opacity="0.4"/>

  <!-- Services list preview (bottom) -->
  <rect x="32" y="484" width="400" height="1" fill="#e0dad3"/>
  <rect x="32" y="502" width="18" height="6" rx="2" fill="#8c6e54" opacity="0.5"/>
  <rect x="60" y="502" width="100" height="6" rx="3" fill="#1a1816" opacity="0.55"/>
  <rect x="362" y="499" width="56" height="10" rx="3" fill="#8c6e54" opacity="0.25"/>
  <rect x="32" y="524" width="400" height="1" fill="#e0dad3"/>
  <rect x="32" y="540" width="18" height="6" rx="2" fill="#8c6e54" opacity="0.5"/>
  <rect x="60" y="540" width="120" height="6" rx="3" fill="#1a1816" opacity="0.55"/>
  <rect x="354" y="537" width="64" height="10" rx="3" fill="#8c6e54" opacity="0.25"/>
</svg>
