<svg width="1000" height="1000" viewBox="0 0 1000 1000" fill="none" xmlns="http://www.w3.org/2000/svg">
<path d="M0 0H1000V1000H0V0Z" fill="#FAF6F0"></path>
<path d="M330.445 482.345C339.699 468.012 355.757 451.328 368.152 475.259C374.051 486.65 366.989 497.938 367.008 509.71C367.028 521.443 375.651 531.251 375.284 542.526C374.916 548.151 345.399 546.876 345.352 542.596C345.649 529.435 353.72 517.158 357.518 504.352C363.51 484.545 342.972 476.955 332.182 495.34C321.221 514.016 358.927 546.542 331.308 545.55C324.75 545.314 310.783 548.332 311.275 540.124C311.957 528.735 329.779 497.777 316.999 488.056C283.452 480.873 297.32 519.456 305.23 534.731C311.728 547.279 297.159 546.104 290.944 545.845C289.127 545.8 278.746 545.903 276.109 544.57C272.473 540.405 279.898 524.806 281.732 520.269C288.831 502.701 283.662 494.194 277.128 478.48C275.897 475.518 294.76 459.52 299.74 464.475C301.192 468.181 298.129 476.941 297.042 481.061H297.041C296.651 481.82 295.731 483.736 296.149 484.534C296.893 484.793 297.686 482.09 297.88 481.608C301.422 474.815 306.098 465.174 314.612 463.884C317.432 463.432 320.314 464.143 322.601 465.854C327.503 469.482 329.601 476.617 330.445 482.345Z" fill="#6F4E37"></path>
<path d="M545.272 443.699C569.223 428.387 575.057 427.399 568.918 457.911C567.219 466.356 564.314 476.809 562.602 485.493C562.351 486.266 561.619 489.235 562.19 489.797C562.879 489.213 563.347 487.591 563.576 486.729C568.661 474.359 582.605 454.133 597.038 468.286C604.649 475.748 608.679 488.7 608.961 499.195C609.562 521.527 596.638 546.942 571.17 545.813C566.087 545.577 557.972 545.524 554.237 541.743C552.316 539.796 553.161 529.873 553.206 526.928C553.3 518.429 553.466 509.929 553.703 501.432C554.304 485.321 555.63 471.193 548.069 456.167C546.451 452.951 542.61 450.246 542.678 446.87C543.261 445.706 544.192 444.388 545.272 443.699ZM579.415 486.002C552.379 490.073 560.4 525.828 580.472 524.283C593.243 522.34 599.147 515.24 597.209 501.973C595.782 492.21 589.621 485.806 579.415 486.002Z" fill="#6F4E37"></path>
<path d="M798.622 463.523C841.107 458.636 841.95 530.683 803.427 545.576C764.008 550.901 757.612 475.422 798.622 463.523ZM810.084 522.86C835.537 517.426 817.24 476.396 792.826 478.627C768.617 485.261 783.037 524.212 810.084 522.86Z" fill="#6F4E37"></path>
<path d="M407.167 463.539C410.397 463.408 428.281 463.537 430.246 464.921C432.782 469.406 425.793 478.432 424.564 484.181C422.339 493.415 423.066 507.892 429.65 515.271C432.168 518.092 436.336 513.482 437.623 511.331C443.543 501.434 448.241 488.912 440.234 478.708C437.937 475.781 430.775 465.489 438.744 464.26C444.836 463.804 458.828 461.995 463.729 465.491C466.433 470.098 460.114 477.376 458.924 482.088C456.902 489.417 458.457 496.275 459.138 503.487C459.543 507.771 463.861 521.639 469.609 514.392C476.936 505.152 475.381 487.424 471.44 476.833C470.277 473.707 469.094 469.419 468.943 466.133C471.638 463.321 485.85 463.815 490.155 463.728C502.526 463.987 492.738 474.849 490.141 480.39C483.356 494.865 479.407 510.296 475.236 525.651C473.986 530.252 474.874 544.729 469.375 545.574C452.876 547.979 457.057 539.716 455.296 527.994C454.718 524.144 453.728 504.126 448.479 504.889C443.402 509.562 440.419 523.362 439.484 530.36C438.971 532.556 439.371 544.069 437 544.868C434.1 545.846 423.7 546.936 422.435 542.602C420.011 534.293 419.995 525.821 417.71 517.465C414.443 505.517 410.275 494.015 405.901 482.45C404.608 479.004 400.423 470.316 401.75 467.108C402.601 465.052 405.217 464.196 407.167 463.539Z" fill="#6F4E37"></path>
<path d="M708.982 440.665C713.424 437.446 722.903 431.798 728.406 432.87C729.437 433.071 730.108 433.408 730.61 434.389C733.789 440.607 725.664 473.702 723.28 481.956C723.067 482.561 722.535 483.824 722.798 484.446C723.273 484.777 724.085 482.91 724.231 482.65C731.373 466.753 752.059 452.272 761.995 475.35C764.997 482.322 763.461 499.102 762.173 506.724C760.673 515.606 770.009 539.38 768.296 543.104C765.021 546.497 751.41 545.001 746.537 545.597C742.123 546.137 737.725 544.47 739.297 538.944C743.383 524.559 752.086 510.931 752.124 495.57C752.158 487.351 745.582 482.147 737.546 482.546C732.989 482.804 728.721 484.854 725.673 488.247C716.776 498.112 725.452 516.288 730.237 526.434C731.99 530.152 737.758 540.618 733.55 543.943C729.451 547.182 718.601 544.972 713.396 545.235C711.434 545.334 707.639 544.252 706.49 542.577C705.581 541.686 705.19 540.291 705.408 538.926C707.608 525.152 711.93 511.993 712.792 497.945C713.442 488.036 712.524 478.087 710.071 468.465C709.213 465.031 703.241 448.087 703.527 446.597C703.961 444.349 707.236 441.932 708.982 440.665Z" fill="#6F4E37"></path>
<path d="M659.146 463.448C661.023 463.453 661.823 463.441 662.754 465.076C662.171 469.775 658.173 481.497 656.564 486.508C661.833 477.434 669.545 465.725 680.914 463.787C685.824 462.949 691.174 464.946 694.035 469.16C703.977 483.803 694.785 498.852 696.328 514.55C697.164 523.052 701.662 530.393 702.89 538.701C703.298 541.462 702.967 543.609 700.06 544.546C697.641 545.328 695.102 545.537 692.55 545.6C689.91 545.384 675.149 546.397 674.062 544.694C672.333 541.986 674.1 536.4 675.019 533.177C678.06 522.511 684.171 512.356 685.815 501.253C686.324 497.553 686.56 492.871 684.478 489.609C682.732 486.875 679.529 485.325 676.428 484.747C672.051 483.932 667.699 484.446 663.981 487.009C660.821 489.189 659.2 492.296 658.281 495.951C653.726 514.058 671.142 533.132 669.264 541.085C668.96 542.378 668.092 543.39 666.964 544.061C663.506 546.116 646.161 546.133 642.049 544.938C640.688 544.543 639.238 543.77 638.628 542.413C636.43 537.51 641.207 529.327 643.203 524.818C648.951 511.831 650.415 501.436 644.65 487.859C642.826 483.561 640.557 479.518 638.865 475.148C640.029 470.206 654.442 464.895 659.146 463.448Z" fill="#6F4E37"></path>
<path d="M517.413 463.527C529.409 462.366 538.116 467.462 544.286 478.009C546.155 481.204 547.836 489.001 546.326 492.492C540.468 505.744 519.249 500.485 508.14 505.314C504.653 506.83 507.2 510.932 508.654 512.961C511.903 517.564 516.893 520.641 522.467 521.478C537.754 523.712 542.682 510.83 547.987 511.64C549.359 513.829 547.682 517.564 546.935 519.951C546.072 521.846 545.18 523.551 544.258 525.397C538.54 538.143 520.173 550.621 506.677 541.78C486.61 528.634 484.315 498.724 496.418 479.33C501.783 470.733 508.026 465.877 517.413 463.527ZM524.696 479.504C520.359 476.524 516.595 475.69 511.435 476.161C506.77 477.485 503.984 479.271 501.752 483.679C499.746 487.642 496.588 496.773 500.665 500.131C504.282 500.295 513.48 498.581 517.59 498.104C521.067 497.558 530.303 496.692 532.263 494.164C535.698 489.731 528.128 481.862 524.696 479.504Z" fill="#6F4E37"></path>
<path d="M244.891 463.498C249.389 463.114 253.756 463.474 257.851 465.494C264.49 468.77 269.643 476.104 271.841 483.026C272.894 486.342 274.582 493.006 272.715 496.219C269.92 501.032 240.462 501.982 233.829 504.31C232.652 504.724 232.355 505.211 231.823 506.282C231.892 509.122 234.277 511.926 236.261 513.883C245.635 523.128 260.979 522.968 271.27 515.41C273.692 513.633 273.89 510.609 277.579 510.792L278.355 511.748C278.773 513.979 277.953 516.757 277.453 519.039C274.005 529.481 266.058 540.846 255.115 544.274C249.084 546.22 242.525 545.669 236.905 542.743C208.446 527.889 212.791 473.506 244.891 463.498ZM262.202 492.642C257.966 481.7 251.736 475.838 239.376 476.22C235.39 477.206 233.724 478.208 231.527 481.849C229.236 485.645 226.579 495.283 228.889 499.208C231.145 500.156 242.953 497.11 246.622 496.479C251.326 495.498 257.862 494.278 262.202 492.642Z" fill="#6F4E37"></path>
<path d="M170.52 445.458C171.15 445.764 171.749 445.911 172.035 446.466C173.843 449.971 170.803 461.942 170.026 465.812C178.394 465.72 190.892 460.629 185.032 474.021C178.028 474.724 168.707 472.205 167.307 481.293C165.587 492.452 161.584 507.387 168.079 517.624C174.992 528.519 183.247 519.864 189.765 515.295C194.014 521.16 186.858 533.114 183.334 538.034C180.773 541.485 176.335 545.64 172.079 545.998C146.671 548.127 150.867 510.448 153.082 494.664C153.679 490.405 155.51 481.813 155.025 477.764C154.336 472.016 146.094 477.055 141.499 473.656C140.809 472.174 140.94 472.809 141.263 471.051C143.367 469.654 150.174 468.011 153.055 466.925C164.611 462.572 166.043 455.418 170.52 445.458Z" fill="#6F4E37"></path>
<path d="M210.828 464.005C211.148 464.043 212.106 464.342 212.472 464.447C214.523 466.789 211.908 477.348 211.216 480.309C207.501 495.454 206.283 509.755 211.567 524.719C213.131 529.148 218.995 540.213 216.791 543.854C212.827 546.779 197.554 546.161 192.34 545.831C191.831 545.675 190.233 545.161 189.803 544.923C184.718 542.11 190.921 529.073 192.222 524.577C193.214 521.15 194.09 518.458 194.932 515.069C198.863 499.229 191.21 489.479 187.371 475.35C192.189 470.415 204.026 465.251 210.828 464.005Z" fill="#6F4E37"></path>
<path d="M247.417 432.673C256.832 432.523 255.758 438.725 260.838 445.238C262.378 447.213 268.55 455.348 268.526 457.299C268.14 458.362 267.901 458.857 266.912 459.495C259.578 464.228 254.3 452.87 251.397 448.07C251.095 447.877 250.792 447.685 250.489 447.492C247.202 450.583 235.429 468.535 231.942 457.06C231.607 455.956 236.196 448.799 237.625 446.826C240.688 442.6 242.9 435.967 247.417 432.673Z" fill="#6F4E37"></path>
<path d="M200.934 433.224C208.535 432.986 205.435 434.798 209.342 438.298C216.458 444.673 212.084 458.14 202.503 458.849C192.346 456.836 186.773 450.634 191.453 439.549C192.935 436.039 197.345 434.15 200.934 433.224Z" fill="#6F4E37"></path>
<path d="M844.881 523.991C850.826 522.604 856.779 526.253 858.24 532.176C859.693 538.099 856.115 544.094 850.209 545.623C846.326 546.629 842.193 545.468 839.404 542.586C836.615 539.703 835.592 535.542 836.725 531.693C837.857 527.845 840.975 524.903 844.881 523.991Z" fill="#6F4E37"></path>
<path d="M243.128 548.386C252.444 547.91 256.137 554.424 253.364 563.33C252.462 566.225 249.591 567.762 246.842 568.802C233.056 568.54 232.244 553.981 243.128 548.386Z" fill="#6F4E37"></path>
<path d="M794.567 432.231C799.934 431.385 810.832 432.401 811.492 443.233C811.905 452.12 804.062 457.198 800.759 458.891L800.446 459.037C797.23 460.401 793.078 458.03 793.707 455.22L793.741 455.082C794.515 452.305 796.74 452.131 799.056 451.074L799.521 450.85C801.997 449.581 803.648 445.772 801.585 443.233C799.65 441.25 798.803 440.754 795.303 440.351L794.567 440.271C790.503 439.855 789.64 434.107 794.339 432.313L794.567 432.231Z" fill="#6F4E37"></path>
</svg>